<?xml version="1.0" encoding="utf-8"?>
<svg version="1.1" id="Layer_1"
xmlns="http://www.w3.org/2000/svg"
xmlns:xlink="http://www.w3.org/1999/xlink"
width="550px" height="400px"
xml:space="preserve">
<g id="PathID_1" transform="matrix(0.313153, 0, 0, 0.274982, 226.9, 150)" opacity="1">
<path style="fill:#FFFFFF;fill-opacity:1" d="M2.95 -17.75Q2.95 -22.3 4.3 -25.8Q5.65 -29.25 8 -31.6Q10.35 -33.95 13.45 -35.1Q16.55 -36.3 20 -36.3Q23.45 -36.3 26.5 -35.1Q29.55 -33.95 31.85 -31.6Q34.15 -29.25 35.5 -25.8Q36.85 -22.3 36.85 -17.75Q36.85 -13.2 35.5 -9.7Q34.15 -6.25 31.85 -3.9Q29.55 -1.55 26.5 -0.4Q23.45 0.75 20 0.75Q16.55 0.75 13.45 -0.4Q10.35 -1.55 8 -3.9Q5.65 -6.25 4.3 -9.7Q2.95 -13.2 2.95 -17.75M8.2 -17.75Q8.2 -14.55 9 -11.9Q9.8 -9.25 11.35 -7.4Q12.85 -5.55 15 -4.55Q17.2 -3.55 19.9 -3.55Q22.6 -3.55 24.75 -4.55Q26.9 -5.55 28.45 -7.4Q29.95 -9.25 30.75 -11.9Q31.6 -14.55 31.6 -17.75Q31.6 -21 30.75 -23.6Q29.95 -26.25 28.45 -28.1Q26.9 -29.95 24.75 -30.95Q22.6 -31.95 19.9 -31.95Q17.2 -31.95 15 -30.95Q12.85 -29.95 11.35 -28.1Q9.8 -26.25 9 -23.6Q8.2 -21 8.2 -17.75" />
</g>
<g id="PathID_2" transform="matrix(0.313153, 0, 0, 0.274982, 226.9, 150)" opacity="1">
</g>
<g id="PathID_3" transform="matrix(0.313153, 0, 0, 0.274982, 239.4, 150)" opacity="1">
<path style="fill:#FFFFFF;fill-opacity:1" d="M13.9 -27.15L15.3 -27.1L16.9 -26.9L18.3 -26.65L19.25 -26.4L18.4 -22.25L16.55 -22.75Q15.25 -23.05 13.2 -23.05Q11.85 -23.05 10.55 -22.75L8.85 -22.35L8.85 0L4.1 0L4.1 -25.5Q5.75 -26.1 8.3 -26.65Q10.8 -27.15 13.9 -27.15" />
</g>
<g id="PathID_4" transform="matrix(0.313153, 0, 0, 0.274982, 239.4, 150)" opacity="1">
</g>
<g id="PathID_5" transform="matrix(0.313153, 0, 0, 0.274982, 245.5, 150)" opacity="1">
<path style="fill:#FFFFFF;fill-opacity:1" d="M21.3 -21Q20.4 -21.7 18.8 -22.35Q17.15 -23.05 15.2 -23.05Q13.15 -23.05 11.7 -22.3Q10.25 -21.55 9.3 -20.25Q8.4 -18.95 7.95 -17.15Q7.55 -15.35 7.55 -13.3Q7.55 -8.65 9.85 -6.1Q12.15 -3.55 16 -3.55Q17.95 -3.55 19.25 -3.75Q20.55 -3.95 21.3 -4.15L21.3 -21M21.3 -38.9L26.05 -39.7L26.05 -0.75Q24.4 -0.3 21.85 0.15Q19.3 0.6 15.95 0.6Q12.9 0.6 10.45 -0.35Q7.95 -1.3 6.25 -3.1Q4.5 -4.9 3.55 -7.5Q2.6 -10.05 2.6 -13.3Q2.6 -16.35 3.4 -18.95Q4.2 -21.5 5.7 -23.35Q7.25 -25.2 9.5 -26.2Q11.7 -27.25 14.6 -27.25Q16.9 -27.25 18.65 -26.6Q20.4 -26 21.3 -25.45L21.3 -38.9" />
</g>
<g id="PathID_6" transform="matrix(0.313153, 0, 0, 0.274982, 245.5, 150)" opacity="1">
</g>
<g id="PathID_7" transform="matrix(0.313153, 0, 0, 0.274982, 254.9, 150)" opacity="1">
<path style="fill:#FFFFFF;fill-opacity:1" d="M2.6 -13.25Q2.6 -16.8 3.6 -19.4Q4.65 -22.05 6.35 -23.8Q8.05 -25.55 10.25 -26.4Q12.45 -27.3 14.75 -27.3Q20.1 -27.3 23 -23.9Q25.85 -20.55 25.85 -13.7L25.85 -12.9L25.8 -12L7.55 -12Q7.85 -7.85 9.95 -5.7Q12.05 -3.55 16.55 -3.55Q19.05 -3.55 20.75 -4Q22.45 -4.45 23.35 -4.85L24 -0.85Q23.15 -0.4 20.95 0.1Q18.8 0.6 16 0.6Q12.55 0.6 10 -0.4Q7.45 -1.45 5.8 -3.3Q4.2 -5.15 3.4 -7.7Q2.6 -10.25 2.6 -13.25M20.9 -15.85Q20.95 -19.1 19.25 -21.15Q17.6 -23.25 14.7 -23.25Q13.05 -23.25 11.8 -22.6Q10.55 -21.95 9.65 -20.95Q8.8 -19.9 8.3 -18.55Q7.8 -17.25 7.65 -15.85L20.9 -15.85" />
</g>
<g id="PathID_8" transform="matrix(0.313153, 0, 0, 0.274982, 254.9, 150)" opacity="1">
</g>
<g id="PathID_9" transform="matrix(0.313153, 0, 0, 0.274982, 263.85, 150)" opacity="1">
<path style="fill:#FFFFFF;fill-opacity:1" d="M13.9 -27.15L15.3 -27.1L16.9 -26.9L18.3 -26.65L19.25 -26.4L18.4 -22.25L16.55 -22.75Q15.25 -23.05 13.2 -23.05Q11.85 -23.05 10.55 -22.75L8.85 -22.35L8.85 0L4.1 0L4.1 -25.5Q5.75 -26.1 8.3 -26.65Q10.8 -27.15 13.9 -27.15" />
</g>
<g id="PathID_10" transform="matrix(0.313153, 0, 0, 0.274982, 263.85, 150)" opacity="1">
</g>
<g id="PathID_11" transform="matrix(0.313153, 0, 0, 0.274982, 270, 150)" opacity="1">
<path style="fill:#FFFFFF;fill-opacity:1" d="M8.85 0L4.1 0L4.1 -26.6L8.85 -26.6L8.85 0M6.45 -31.4Q5.15 -31.4 4.25 -32.25Q3.35 -33.1 3.35 -34.55Q3.35 -36 4.25 -36.85Q5.15 -37.65 6.45 -37.65Q7.7 -37.65 8.6 -36.85Q9.5 -36 9.5 -34.55Q9.5 -33.1 8.6 -32.25Q7.7 -31.4 6.45 -31.4" />
</g>
<g id="PathID_12" transform="matrix(0.313153, 0, 0, 0.274982, 270, 150)" opacity="1">
</g>
<g id="PathID_13" transform="matrix(0.313153, 0, 0, 0.274982, 274.05, 150)" opacity="1">
<path style="fill:#FFFFFF;fill-opacity:1" d="M4.1 -25.85Q5.7 -26.25 8.45 -26.7Q11.15 -27.15 14.7 -27.15Q17.85 -27.15 19.95 -26.3Q22.05 -25.4 23.3 -23.75Q24.55 -22.15 25.1 -19.9Q25.6 -17.65 25.6 -14.95L25.6 0L20.85 0L20.85 -13.9Q20.85 -16.35 20.5 -18.1Q20.15 -19.85 19.4 -20.95Q18.6 -22 17.35 -22.5Q16.05 -23 14.15 -23L12.6 -22.9L11 -22.8L9.7 -22.6L8.85 -22.45L8.85 0L4.1 0L4.1 -25.85" />
</g>
<g id="PathID_14" transform="matrix(0.313153, 0, 0, 0.274982, 274.05, 150)" opacity="1">
</g>
<g id="PathID_15" transform="matrix(0.313153, 0, 0, 0.274982, 283.25, 150)" opacity="1">
<path style="fill:#FFFFFF;fill-opacity:1" d="M20.75 -2.65Q20.15 -2.25 18.4 -1.6Q16.65 -0.95 14.25 -0.95Q11.85 -0.95 9.75 -1.75Q7.6 -2.5 6.05 -4.1Q4.45 -5.7 3.5 -8.15Q2.6 -10.55 2.6 -13.85Q2.6 -16.8 3.45 -19.2Q4.35 -21.65 6 -23.4Q7.65 -25.2 10.05 -26.2Q12.5 -27.15 15.5 -27.15Q18.85 -27.15 21.3 -26.7L25.5 -25.8L25.5 -2.05Q25.5 4.1 22.3 6.85Q19.15 9.6 12.7 9.6Q10.2 9.6 7.95 9.2Q5.7 8.8 4.1 8.25L4.95 4.1Q6.4 4.65 8.45 5.1Q10.55 5.5 12.8 5.5Q17.05 5.5 18.9 3.85Q20.75 2.15 20.75 -1.5L20.75 -2.65M20.7 -22.4Q20 -22.6 18.8 -22.8Q17.6 -23 15.55 -23Q11.7 -23 9.65 -20.45Q7.55 -17.95 7.55 -13.8Q7.55 -11.5 8.15 -9.85Q8.75 -8.25 9.75 -7.15Q10.75 -6.1 12.05 -5.55Q13.35 -5.05 14.75 -5.05Q16.65 -5.05 18.2 -5.6Q19.8 -6.15 20.7 -6.85L20.7 -22.4" />
</g>
<g id="PathID_16" transform="matrix(0.313153, 0, 0, 0.274982, 283.25, 150)" opacity="1">
</g>
<g id="PathID_17" transform="matrix(0.387301, 0, 0, 0.387301, 241.85, 93.9)" opacity="1">
<path style="fill:#FFFFFF;fill-opacity:1" d="M92.45 2.2Q94.65 4.4 94.65 7.5Q94.65 10.8 92.15 13.05L82.2 21.25L82.05 21.25L72.85 13.7Q71.3 12.7 70.4 11.1Q69.45 9.4 69.45 7.45Q69.45 4.4 71.65 2.2Q73.85 0 76.9 0Q79.85 0 82.05 2.05Q84.25 0 87.2 0Q90.3 0 92.45 2.2M74.05 20.5Q76.25 20.5 77.75 22.05Q79.3 23.6 79.3 25.75Q79.3 28.2 77.55 29.7L70.55 35.45L70.45 35.45L64 30.15Q61.6 28.6 61.6 25.75Q61.6 23.6 63.15 22.05Q64.7 20.5 66.85 20.5Q69 20.5 70.45 21.95Q72 20.5 74.05 20.5M57.85 34.75L60.65 40.7L64.2 37.3L75.85 37.3L67.8 58.2L67.7 59.15L67.95 60.7Q69.7 63.35 69.7 66.6Q69.7 71.1 66.55 74.3Q63.4 77.45 58.95 77.45L10.75 77.45Q6.3 77.45 3.15 74.3Q0 71.1 0 66.6Q0 64.9 0.45 63.4L0.55 62.65L10.4 37.55L10.4 13.35Q10.4 11.95 10.8 10.35Q11.5 7.5 13.25 5.7Q15.75 3.15 19.9 3.15L33.5 3.2Q35.1 3.3 36.15 4.45Q37.25 5.55 37.25 7.1Q37.25 8.7 36.15 10Q35 11.4 33.4 11.5L23 11.5Q22.05 11.55 21.3 12.25Q20.15 13.4 20.15 15.6L20.15 34.75L27.25 34.75Q27.7 30.8 30.65 28.1Q33.6 25.4 37.6 25.4Q41.55 25.4 44.5 28.1Q47.45 30.8 47.9 34.75L57.85 34.75M56 37.65L45.9 37.65L45.85 36.2Q45.5 33.3 43.55 31.15Q41.1 28.45 37.7 28.4Q34.25 28.35 31.8 31Q29.75 33.2 29.4 36.2L29.3 37.45L29.3 37.65L17.2 37.65L17.2 15.6Q17.2 12.1 19.3 10.15Q20.95 8.55 23.05 8.6L33.3 8.6L34 8L34.3 7.1Q34.3 6.2 33.4 6.1L19.9 6.1Q17 6.1 15.35 7.75Q13.35 9.75 13.3 13.35L13.3 38.1L3.4 63.4L3.35 64L3.3 64.15Q2.9 65.45 2.9 66.6Q2.9 69.85 5.2 72.2Q7.55 74.55 10.75 74.55L58.95 74.55Q62.2 74.55 64.5 72.2Q66.8 69.85 66.8 66.6Q66.8 64.2 65.45 62.15L65.35 62L65.3 61.85Q64.75 60.5 64.75 59.2Q64.75 58.15 65.05 57.25L71.6 40.2L65.35 40.2L59.75 45.6L56 37.65" />
</g>
<g id="PathID_18" transform="matrix(0.387301, 0, 0, 0.387301, 241.85, 93.9)" opacity="1">
</g>
<g id="PathID_19" transform="matrix(1, 0, 0, 1, 65.15, 16)" opacity="1">
<path style="fill:#FFFFFF;fill-opacity:1" d="M194.75 298.25L94.65 257.3L94.65 198.85L100.85 198.85L100.85 253.45L194.75 291.85L289.3 253.45L289.3 198.85L295.5 198.85L295.5 257.3L194.75 298.25" />
</g>
<g id="PathID_20" transform="matrix(1, 0, 0, 1, 65.15, 16)" opacity="1">
</g>
<g id="PathID_21" transform="matrix(1, 0, 0, 1, 65.15, 16)" opacity="1">
<path style="fill:#FFFFFF;fill-opacity:1" d="M195.4 53.35L295.5 94.25L295.5 152.75L289.3 152.75L289.3 98.1L195.4 59.7L100.85 98.1L100.85 152.75L94.65 152.75L94.65 94.25L195.4 53.35" />
</g>
<g id="PathID_22" transform="matrix(1, 0, 0, 1, 65.15, 16)" opacity="1">
</g>
<g id="PathID_23" transform="matrix(1, 0, 0, 1, 65.15, 16)" opacity="1">
<path style="fill:#736357;fill-opacity:1" d="M244.45 117L145.7 117L145.7 115.4L244.45 115.4L244.45 117" />
</g>
<g id="PathID_24" transform="matrix(1, 0, 0, 1, 65.15, 16)" opacity="1">
</g>
<g id="PathID_25" transform="matrix(1, 0, 0, 1, 65.15, 16)" opacity="1">
<path style="fill:#736357;fill-opacity:1" d="M244.45 143.9L145.7 143.9L145.7 142.3L244.45 142.3L244.45 143.9" />
</g>
<g id="PathID_26" transform="matrix(1, 0, 0, 1, 65.15, 16)" opacity="1">
</g>
<g id="PathID_27" transform="matrix(1.21672, 0, 0, 1, 22.9, 16)" opacity="1">
<path style="fill:#FFFFFF;fill-opacity:1" d="M244.45 117L145.7 117L145.7 115.4L244.45 115.4L244.45 117" />
</g>
<g id="PathID_28" transform="matrix(1.21672, 0, 0, 1, 22.9, 16)" opacity="1">
</g>
<g id="PathID_29" transform="matrix(1.21672, 0, 0, 1, 22.9, 16)" opacity="1">
<path style="fill:#FFFFFF;fill-opacity:1" d="M244.45 143.9L145.7 143.9L145.7 142.3L244.45 142.3L244.45 143.9" />
</g>
<g id="PathID_30" transform="matrix(1.21672, 0, 0, 1, 22.9, 16)" opacity="1">
</g>
<g id="PathID_31" transform="matrix(1, 0, 0, 1, 65.1, 16)" opacity="1">
<path style="fill:#FFFFFF;fill-opacity:1" d="M254.75 210.25L135.45 210.25L135.45 204.25L254.75 204.25L254.75 210.25" />
</g>
<g id="PathID_32" transform="matrix(1, 0, 0, 1, 65.1, 16)" opacity="1">
</g>
<g id="PathID_33" transform="matrix(0.541561, 0, 0, 0.541561, 245.6, 246.05)" opacity="1">
<path style="fill:#FFFFFF;fill-opacity:1" d="M45 32.2L45 67.55L38.75 67.55L38.75 32.15Q34.8 30.85 32.3 26.95Q29.75 23 29.75 18Q29.75 11.6 33.3 5.95Q37.1 0 41.9 0Q46.7 0 50.45 5.95Q54 11.6 54 18Q54 23.05 51.45 27Q48.95 30.9 45 32.2M20.8 24.4Q17.75 29.75 14.35 31.65L14.35 67.55L8.1 67.55L8.1 31.6Q4.7 29.7 1.7 24.4Q0.65 22.55 0.3 21.1Q-0.15 19.35 0.1 17.45Q0.3 15.6 1.05 13.25L2.45 9.2L4.25 4.7Q5.75 1.75 7.55 1.55L5.85 16.95L7.95 16.95L9.6 1.45L12.9 1.45L14.55 16.95L16.65 16.95L14.95 1.55Q16.75 1.75 18.25 4.7L20.05 9.2L21.45 13.25Q22.2 15.6 22.4 17.45Q22.65 19.35 22.2 21.1Q21.85 22.55 20.8 24.4" />
</g>
<g id="PathID_34" transform="matrix(0.541561, 0, 0, 0.541561, 245.6, 246.05)" opacity="1">
</g>
<g id="PathID_35" transform="matrix(0.461502, 0, 0, 0.405249, 208.4, 270.75)" opacity="1">
<path style="fill:#FFFFFF;fill-opacity:1" d="M23.9 -26.4Q23.9 -24.55 23.15 -22.85Q22.4 -21.15 21.2 -19.45Q19.95 -17.8 18.4 -16.2L15.35 -13.05L13.35 -11Q12.15 -9.8 11.15 -8.55Q10.15 -7.25 9.45 -6.1Q8.75 -4.9 8.75 -4.05L25.1 -4.05L25.1 0L3.55 0L3.5 -0.6L3.5 -1.15Q3.5 -3.55 4.3 -5.65Q5.1 -7.7 6.4 -9.55Q7.65 -11.4 9.25 -13.05L12.4 -16.2L14.8 -18.65Q15.95 -19.85 16.85 -21.05Q17.75 -22.25 18.3 -23.55Q18.85 -24.8 18.85 -26.25Q18.85 -27.8 18.35 -28.85Q17.85 -29.95 17.05 -30.65Q16.2 -31.35 15.1 -31.7Q14 -32.05 12.8 -32.05Q11.3 -32.05 10.05 -31.65Q8.85 -31.2 7.85 -30.7Q6.9 -30.15 6.25 -29.55L5.2 -28.65L2.85 -32.05Q3.3 -32.55 4.25 -33.3Q5.15 -34.05 6.45 -34.7Q7.7 -35.35 9.3 -35.85Q10.9 -36.3 12.75 -36.3Q18.3 -36.3 21.1 -33.7Q23.9 -31.1 23.9 -26.4" />
</g>
<g id="PathID_36" transform="matrix(0.461502, 0, 0, 0.405249, 208.4, 270.75)" opacity="1">
</g>
<g id="PathID_37" transform="matrix(0.461502, 0, 0, 0.405249, 221.7, 270.75)" opacity="1">
<path style="fill:#FFFFFF;fill-opacity:1" d="M2.55 -17.75Q2.55 -26.65 5.7 -31.5Q8.85 -36.3 14.45 -36.3Q20 -36.3 23.15 -31.5Q26.3 -26.65 26.3 -17.75Q26.3 -8.85 23.15 -4.05Q20 0.75 14.45 0.75Q8.85 0.75 5.7 -4.05Q2.55 -8.85 2.55 -17.75M21.3 -17.75Q21.3 -20.65 20.95 -23.3Q20.6 -25.9 19.85 -27.85Q19.05 -29.8 17.7 -30.95Q16.35 -32.1 14.45 -32.1Q12.5 -32.1 11.15 -30.95Q9.8 -29.8 9 -27.85Q8.25 -25.9 7.9 -23.3Q7.55 -20.65 7.55 -17.75Q7.55 -14.85 7.9 -12.2Q8.25 -9.6 9 -7.65Q9.8 -5.7 11.15 -4.55Q12.5 -3.4 14.45 -3.4Q16.35 -3.4 17.7 -4.55Q19.05 -5.7 19.85 -7.65Q20.6 -9.6 20.95 -12.2Q21.3 -14.85 21.3 -17.75" />
</g>
<g id="PathID_38" transform="matrix(0.461502, 0, 0, 0.405249, 221.7, 270.75)" opacity="1">
</g>
<g id="PathID_39" transform="matrix(0.461502, 0, 0, 0.405249, 284.1, 270.75)" opacity="1">
<path style="fill:#FFFFFF;fill-opacity:1" d="M23.9 -26.4Q23.9 -24.55 23.15 -22.85Q22.4 -21.15 21.2 -19.45Q19.95 -17.8 18.4 -16.2L15.35 -13.05L13.35 -11Q12.15 -9.8 11.15 -8.55Q10.15 -7.25 9.45 -6.1Q8.75 -4.9 8.75 -4.05L25.1 -4.05L25.1 0L3.55 0L3.5 -0.6L3.5 -1.15Q3.5 -3.55 4.3 -5.65Q5.1 -7.7 6.4 -9.55Q7.65 -11.4 9.25 -13.05L12.4 -16.2L14.8 -18.65Q15.95 -19.85 16.85 -21.05Q17.75 -22.25 18.3 -23.55Q18.85 -24.8 18.85 -26.25Q18.85 -27.8 18.35 -28.85Q17.85 -29.95 17.05 -30.65Q16.2 -31.35 15.1 -31.7Q14 -32.05 12.8 -32.05Q11.3 -32.05 10.05 -31.65Q8.85 -31.2 7.85 -30.7Q6.9 -30.15 6.25 -29.55L5.2 -28.65L2.85 -32.05Q3.3 -32.55 4.25 -33.3Q5.15 -34.05 6.45 -34.7Q7.7 -35.35 9.3 -35.85Q10.9 -36.3 12.75 -36.3Q18.3 -36.3 21.1 -33.7Q23.9 -31.1 23.9 -26.4" />
</g>
<g id="PathID_40" transform="matrix(0.461502, 0, 0, 0.405249, 284.1, 270.75)" opacity="1">
</g>
<g id="PathID_41" transform="matrix(0.461502, 0, 0, 0.405249, 297.4, 270.75)" opacity="1">
<path style="fill:#FFFFFF;fill-opacity:1" d="M2.55 -17.75Q2.55 -26.65 5.7 -31.5Q8.85 -36.3 14.45 -36.3Q20 -36.3 23.15 -31.5Q26.3 -26.65 26.3 -17.75Q26.3 -8.85 23.15 -4.05Q20 0.75 14.45 0.75Q8.85 0.75 5.7 -4.05Q2.55 -8.85 2.55 -17.75M21.3 -17.75Q21.3 -20.65 20.95 -23.3Q20.6 -25.9 19.85 -27.85Q19.05 -29.8 17.7 -30.95Q16.35 -32.1 14.45 -32.1Q12.5 -32.1 11.15 -30.95Q9.8 -29.8 9 -27.85Q8.25 -25.9 7.9 -23.3Q7.55 -20.65 7.55 -17.75Q7.55 -14.85 7.9 -12.2Q8.25 -9.6 9 -7.65Q9.8 -5.7 11.15 -4.55Q12.5 -3.4 14.45 -3.4Q16.35 -3.4 17.7 -4.55Q19.05 -5.7 19.85 -7.65Q20.6 -9.6 20.95 -12.2Q21.3 -14.85 21.3 -17.75" />
</g>
<g id="PathID_42" transform="matrix(0.461502, 0, 0, 0.405249, 297.4, 270.75)" opacity="1">
</g>
<g id="PathID_43" transform="matrix(0.657376, 0, 0, 0.577247, 130.6, 202.85)" opacity="1">
<path style="fill:#FFFFFF;fill-opacity:1" d="M30.65 -35.45L27.05 -31.6L22.9 -27.25L18.55 -22.85L14.55 -18.9Q16.75 -17.35 19.2 -15.1Q21.65 -12.85 24 -10.3Q26.35 -7.7 28.45 -5.05Q30.5 -2.4 31.9 0L26.05 0Q24.5 -2.4 22.5 -4.85Q20.5 -7.25 18.3 -9.5Q16.05 -11.7 13.8 -13.6Q11.5 -15.5 9.35 -16.85L9.35 0L4.4 0L4.4 -35.45L9.35 -35.45L9.35 -19.8L13.3 -23.6L17.55 -27.9L21.5 -32Q23.4 -34 24.65 -35.45L30.65 -35.45" />
</g>
<g id="PathID_44" transform="matrix(0.657376, 0, 0, 0.577247, 130.6, 202.85)" opacity="1">
</g>
<g id="PathID_45" transform="matrix(0.657376, 0, 0, 0.577247, 159.2, 202.85)" opacity="1">
<path style="fill:#FFFFFF;fill-opacity:1" d="M28.1 0L26.45 -4.5L24.85 -9.05L8.8 -9.05L5.55 0L0.4 0L4.25 -10.4L7.75 -19.5Q9.45 -23.8 11.15 -27.7Q12.85 -31.65 14.7 -35.45L19.25 -35.45Q21.1 -31.65 22.75 -27.7Q24.45 -23.8 26.2 -19.5L29.7 -10.4L33.5 0L28.1 0M23.45 -13.15L20.2 -21.75Q18.55 -25.95 16.85 -29.8Q15.05 -25.95 13.45 -21.75Q11.8 -17.6 10.25 -13.15L23.45 -13.15" />
</g>
<g id="PathID_46" transform="matrix(0.657376, 0, 0, 0.577247, 159.2, 202.85)" opacity="1">
</g>
<g id="PathID_47" transform="matrix(0.657376, 0, 0, 0.577247, 188.95, 202.85)" opacity="1">
<path style="fill:#FFFFFF;fill-opacity:1" d="M4.4 0L4.4 -35.45L25.8 -35.45L25.8 -31.2L9.35 -31.2L9.35 -20.5L23.95 -20.5L23.95 -16.3L9.35 -16.3L9.35 0L4.4 0" />
</g>
<g id="PathID_48" transform="matrix(0.657376, 0, 0, 0.577247, 188.95, 202.85)" opacity="1">
</g>
<g id="PathID_49" transform="matrix(0.657376, 0, 0, 0.577247, 214.45, 202.85)" opacity="1">
<path style="fill:#FFFFFF;fill-opacity:1" d="M28.1 0L26.45 -4.5L24.85 -9.05L8.8 -9.05L5.55 0L0.4 0L4.25 -10.4L7.75 -19.5Q9.45 -23.8 11.15 -27.7Q12.85 -31.65 14.7 -35.45L19.25 -35.45Q21.1 -31.65 22.75 -27.7Q24.45 -23.8 26.2 -19.5L29.7 -10.4L33.5 0L28.1 0M23.45 -13.15L20.2 -21.75Q18.55 -25.95 16.85 -29.8Q15.05 -25.95 13.45 -21.75Q11.8 -17.6 10.25 -13.15L23.45 -13.15" />
</g>
<g id="PathID_50" transform="matrix(0.657376, 0, 0, 0.577247, 214.45, 202.85)" opacity="1">
</g>
<g id="PathID_51" transform="matrix(0.657376, 0, 0, 0.577247, 274.65, 202.85)" opacity="1">
<path style="fill:#FFFFFF;fill-opacity:1" d="M19.65 0.75Q15.9 0.75 12.85 -0.45Q9.75 -1.7 7.55 -4.05Q5.35 -6.4 4.15 -9.85Q2.95 -13.3 2.95 -17.75Q2.95 -22.2 4.3 -25.65Q5.65 -29.1 7.95 -31.5Q10.3 -33.85 13.35 -35.05Q16.4 -36.3 19.9 -36.3Q22.1 -36.3 23.85 -36Q25.65 -35.65 26.95 -35.25Q28.25 -34.85 29.05 -34.45L30.2 -33.85L28.75 -29.75Q28.3 -30.05 27.45 -30.4L25.45 -31.1Q24.35 -31.5 23.05 -31.7Q21.75 -31.95 20.4 -31.95Q17.6 -31.95 15.35 -30.95Q13.1 -30 11.5 -28.15Q9.9 -26.3 9.1 -23.65Q8.25 -21.05 8.25 -17.75Q8.25 -14.6 8.95 -11.95Q9.7 -9.35 11.2 -7.5Q12.7 -5.6 14.9 -4.6Q17.15 -3.55 20.1 -3.55Q23.55 -3.55 25.8 -4.3Q28.05 -5 29.15 -5.55L30.45 -1.45Q30.1 -1.2 29.15 -0.85Q28.25 -0.45 26.85 -0.1Q25.5 0.25 23.65 0.5Q21.8 0.75 19.65 0.75" />
</g>
<g id="PathID_52" transform="matrix(0.657376, 0, 0, 0.577247, 274.65, 202.85)" opacity="1">
</g>
<g id="PathID_53" transform="matrix(0.657376, 0, 0, 0.577247, 303, 202.85)" opacity="1">
<path style="fill:#FFFFFF;fill-opacity:1" d="M28.1 0L26.45 -4.5L24.85 -9.05L8.8 -9.05L5.55 0L0.4 0L4.25 -10.4L7.75 -19.5Q9.45 -23.8 11.15 -27.7Q12.85 -31.65 14.7 -35.45L19.25 -35.45Q21.1 -31.65 22.75 -27.7Q24.45 -23.8 26.2 -19.5L29.7 -10.4L33.5 0L28.1 0M23.45 -13.15L20.2 -21.75Q18.55 -25.95 16.85 -29.8Q15.05 -25.95 13.45 -21.75Q11.8 -17.6 10.25 -13.15L23.45 -13.15" />
</g>
<g id="PathID_54" transform="matrix(0.657376, 0, 0, 0.577247, 303, 202.85)" opacity="1">
</g>
<g id="PathID_55" transform="matrix(0.657376, 0, 0, 0.577247, 332.75, 202.85)" opacity="1">
<path style="fill:#FFFFFF;fill-opacity:1" d="M4.4 0L4.4 -35.45L25.8 -35.45L25.8 -31.2L9.35 -31.2L9.35 -20.5L23.95 -20.5L23.95 -16.3L9.35 -16.3L9.35 0L4.4 0" />
</g>
<g id="PathID_56" transform="matrix(0.657376, 0, 0, 0.577247, 332.75, 202.85)" opacity="1">
</g>
<g id="PathID_57" transform="matrix(0.657376, 0, 0, 0.577247, 358.25, 202.85)" opacity="1">
<path style="fill:#FFFFFF;fill-opacity:1" d="M4.4 0L4.4 -35.45L26.05 -35.45L26.05 -31.2L9.35 -31.2L9.35 -20.65L24.2 -20.65L24.2 -16.5L9.35 -16.5L9.35 -4.25L27.35 -4.25L27.35 0L4.4 0" />
</g>
<g id="PathID_58" transform="matrix(0.657376, 0, 0, 0.577247, 358.25, 202.85)" opacity="1">
</g>
</svg>
