<?xml version="1.0" encoding="utf-8"?>
<svg version="1.1" id="Layer_1"
xmlns="http://www.w3.org/2000/svg"
xmlns:xlink="http://www.w3.org/1999/xlink"
width="550px" height="400px"
xml:space="preserve">
<g id="PathID_59" transform="matrix(0.313153, 0, 0, 0.274982, 226.9, 149.6)" opacity="1">
<path style="fill:#FFFFFF;fill-opacity:1" d="M20.3 -4.9L18.95 -8.05L17.15 -12.1L15.05 -16.65L13 -21.05L11.15 -24.75Q10.35 -26.4 9.8 -27.3Q9.25 -21.25 8.9 -14.2Q8.55 -7.15 8.3 0L3.4 0L3.9 -9.3L4.45 -18.5L5.2 -27.35Q5.55 -31.65 6.05 -35.45L10.4 -35.45Q11.75 -33.2 13.35 -30.15Q14.95 -27.05 16.55 -23.7L19.6 -17L22.3 -10.9L25 -17L28.1 -23.7L31.25 -30.15Q32.85 -33.2 34.25 -35.45L38.6 -35.45Q40.35 -18.3 41.2 0L36.35 0Q36.1 -7.15 35.75 -14.2Q35.35 -21.25 34.8 -27.3L33.45 -24.75Q32.6 -23.15 31.65 -21.05L29.55 -16.65L27.5 -12.1L25.65 -8.05L24.3 -4.9L20.3 -4.9" />
</g>
<g id="PathID_60" transform="matrix(0.313153, 0, 0, 0.274982, 226.9, 149.6)" opacity="1">
</g>
<g id="PathID_61" transform="matrix(0.313153, 0, 0, 0.274982, 240.85, 149.6)" opacity="1">
<path style="fill:#FFFFFF;fill-opacity:1" d="M25.3 -0.75Q23.65 -0.35 20.95 0.1Q18.25 0.55 14.75 0.55Q11.65 0.55 9.55 -0.3Q7.45 -1.2 6.2 -2.85Q4.9 -4.5 4.35 -6.7Q3.8 -8.95 3.8 -11.65L3.8 -26.6L8.55 -26.6L8.55 -12.7Q8.55 -7.8 10.05 -5.7Q11.6 -3.6 15.25 -3.6L16.85 -3.65L18.35 -3.8L19.65 -3.95L20.5 -4.15L20.5 -26.6L25.3 -26.6L25.3 -0.75" />
</g>
<g id="PathID_62" transform="matrix(0.313153, 0, 0, 0.274982, 240.85, 149.6)" opacity="1">
</g>
<g id="PathID_63" transform="matrix(0.313153, 0, 0, 0.274982, 250, 149.6)" opacity="1">
<path style="fill:#FFFFFF;fill-opacity:1" d="M4.1 -25.85Q5.7 -26.25 8.45 -26.7Q11.15 -27.15 14.7 -27.15Q17.85 -27.15 19.95 -26.3Q22.05 -25.4 23.3 -23.75Q24.55 -22.15 25.1 -19.9Q25.6 -17.65 25.6 -14.95L25.6 0L20.85 0L20.85 -13.9Q20.85 -16.35 20.5 -18.1Q20.15 -19.85 19.4 -20.95Q18.6 -22 17.35 -22.5Q16.05 -23 14.15 -23L12.6 -22.9L11 -22.8L9.7 -22.6L8.85 -22.45L8.85 0L4.1 0L4.1 -25.85" />
</g>
<g id="PathID_64" transform="matrix(0.313153, 0, 0, 0.274982, 250, 149.6)" opacity="1">
</g>
<g id="PathID_65" transform="matrix(0.313153, 0, 0, 0.274982, 259.2, 149.6)" opacity="1">
<path style="fill:#FFFFFF;fill-opacity:1" d="M0.95 4.95Q1.5 5.2 2.4 5.45Q3.3 5.65 4.2 5.65Q7 5.65 8.6 4.4Q10.2 3.15 11.45 0.35Q8.25 -5.75 5.45 -12.65Q2.65 -19.55 0.8 -26.6L5.95 -26.6Q6.5 -24.3 7.3 -21.65L9.05 -16.15Q10 -13.35 11.15 -10.55Q12.3 -7.7 13.5 -5.1Q15.45 -10.5 16.9 -15.75Q18.3 -21.05 19.6 -26.6L24.5 -26.6Q22.65 -19.1 20.4 -12.15Q18.15 -5.2 15.55 0.8Q14.55 3.1 13.45 4.75Q12.35 6.45 11 7.5Q9.65 8.6 8 9.1Q6.35 9.6 4.25 9.6L3.05 9.55L1.85 9.35L0.8 9.05L0.1 8.8L0.95 4.95" />
</g>
<g id="PathID_66" transform="matrix(0.313153, 0, 0, 0.274982, 259.2, 149.6)" opacity="1">
</g>
<g id="PathID_67" transform="matrix(0.313153, 0, 0, 0.274982, 267.1, 149.6)" opacity="1">
<path style="fill:#FFFFFF;fill-opacity:1" d="M27.6 -13.3Q27.6 -10.1 26.65 -7.55Q25.75 -5 24.1 -3.15Q22.4 -1.3 20.1 -0.3Q17.8 0.65 15.1 0.65Q12.4 0.65 10.05 -0.3Q7.75 -1.3 6.1 -3.15Q4.45 -5 3.5 -7.55Q2.6 -10.1 2.6 -13.3Q2.6 -16.4 3.5 -19Q4.45 -21.6 6.1 -23.45Q7.75 -25.3 10.05 -26.3Q12.4 -27.3 15.1 -27.3Q17.8 -27.3 20.1 -26.3Q22.4 -25.3 24.1 -23.45Q25.75 -21.6 26.65 -19Q27.6 -16.4 27.6 -13.3M22.6 -13.3Q22.6 -17.8 20.6 -20.45Q18.55 -23.1 15.1 -23.1Q11.6 -23.1 9.6 -20.45Q7.55 -17.8 7.55 -13.3Q7.55 -8.8 9.6 -6.15Q11.6 -3.5 15.1 -3.5Q18.55 -3.5 20.6 -6.15Q22.6 -8.8 22.6 -13.3" />
</g>
<g id="PathID_68" transform="matrix(0.313153, 0, 0, 0.274982, 267.1, 149.6)" opacity="1">
</g>
<g id="PathID_69" transform="matrix(0.313153, 0, 0, 0.274982, 276.55, 149.6)" opacity="1">
<path style="fill:#FFFFFF;fill-opacity:1" d="M4.1 -25.85Q5.7 -26.25 8.45 -26.7Q11.15 -27.15 14.7 -27.15Q17.85 -27.15 19.95 -26.3Q22.05 -25.4 23.3 -23.75Q24.55 -22.15 25.1 -19.9Q25.6 -17.65 25.6 -14.95L25.6 0L20.85 0L20.85 -13.9Q20.85 -16.35 20.5 -18.1Q20.15 -19.85 19.4 -20.95Q18.6 -22 17.35 -22.5Q16.05 -23 14.15 -23L12.6 -22.9L11 -22.8L9.7 -22.6L8.85 -22.45L8.85 0L4.1 0L4.1 -25.85" />
</g>
<g id="PathID_70" transform="matrix(0.313153, 0, 0, 0.274982, 276.55, 149.6)" opacity="1">
</g>
<g id="PathID_71" transform="matrix(0.313153, 0, 0, 0.274982, 285.75, 149.6)" opacity="1">
<path style="fill:#FFFFFF;fill-opacity:1" d="M0.95 4.95Q1.5 5.2 2.4 5.45Q3.3 5.65 4.2 5.65Q7 5.65 8.6 4.4Q10.2 3.15 11.45 0.35Q8.25 -5.75 5.45 -12.65Q2.65 -19.55 0.8 -26.6L5.95 -26.6Q6.5 -24.3 7.3 -21.65L9.05 -16.15Q10 -13.35 11.15 -10.55Q12.3 -7.7 13.5 -5.1Q15.45 -10.5 16.9 -15.75Q18.3 -21.05 19.6 -26.6L24.5 -26.6Q22.65 -19.1 20.4 -12.15Q18.15 -5.2 15.55 0.8Q14.55 3.1 13.45 4.75Q12.35 6.45 11 7.5Q9.65 8.6 8 9.1Q6.35 9.6 4.25 9.6L3.05 9.55L1.85 9.35L0.8 9.05L0.1 8.8L0.95 4.95" />
</g>
<g id="PathID_72" transform="matrix(0.313153, 0, 0, 0.274982, 285.75, 149.6)" opacity="1">
</g>
<g id="PathID_73" transform="matrix(0.313153, 0, 0, 0.274982, 293.65, 149.6)" opacity="1">
<path style="fill:#FFFFFF;fill-opacity:1" d="M27.6 -13.3Q27.6 -10.1 26.65 -7.55Q25.75 -5 24.1 -3.15Q22.4 -1.3 20.1 -0.3Q17.8 0.65 15.1 0.65Q12.4 0.65 10.05 -0.3Q7.75 -1.3 6.1 -3.15Q4.45 -5 3.5 -7.55Q2.6 -10.1 2.6 -13.3Q2.6 -16.4 3.5 -19Q4.45 -21.6 6.1 -23.45Q7.75 -25.3 10.05 -26.3Q12.4 -27.3 15.1 -27.3Q17.8 -27.3 20.1 -26.3Q22.4 -25.3 24.1 -23.45Q25.75 -21.6 26.65 -19Q27.6 -16.4 27.6 -13.3M22.6 -13.3Q22.6 -17.8 20.6 -20.45Q18.55 -23.1 15.1 -23.1Q11.6 -23.1 9.6 -20.45Q7.55 -17.8 7.55 -13.3Q7.55 -8.8 9.6 -6.15Q11.6 -3.5 15.1 -3.5Q18.55 -3.5 20.6 -6.15Q22.6 -8.8 22.6 -13.3" />
</g>
<g id="PathID_74" transform="matrix(0.313153, 0, 0, 0.274982, 293.65, 149.6)" opacity="1">
</g>
<g id="PathID_75" transform="matrix(0.387301, 0, 0, 0.387301, 241.85, 93.9)" opacity="1">
<path style="fill:#FFFFFF;fill-opacity:1" d="M92.45 2.2Q94.65 4.4 94.65 7.5Q94.65 10.8 92.15 13.05L82.2 21.25L82.05 21.25L72.85 13.7Q71.3 12.7 70.4 11.1Q69.45 9.4 69.45 7.45Q69.45 4.4 71.65 2.2Q73.85 0 76.9 0Q79.85 0 82.05 2.05Q84.25 0 87.2 0Q90.3 0 92.45 2.2M74.05 20.5Q76.25 20.5 77.75 22.05Q79.3 23.6 79.3 25.75Q79.3 28.2 77.55 29.7L70.55 35.45L70.45 35.45L64 30.15Q61.6 28.6 61.6 25.75Q61.6 23.6 63.15 22.05Q64.7 20.5 66.85 20.5Q69 20.5 70.45 21.95Q72 20.5 74.05 20.5M57.85 34.75L60.65 40.7L64.2 37.3L75.85 37.3L67.8 58.2L67.7 59.15L67.95 60.7Q69.7 63.35 69.7 66.6Q69.7 71.1 66.55 74.3Q63.4 77.45 58.95 77.45L10.75 77.45Q6.3 77.45 3.15 74.3Q0 71.1 0 66.6Q0 64.9 0.45 63.4L0.55 62.65L10.4 37.55L10.4 13.35Q10.4 11.95 10.8 10.35Q11.5 7.5 13.25 5.7Q15.75 3.15 19.9 3.15L33.5 3.2Q35.1 3.3 36.15 4.45Q37.25 5.55 37.25 7.1Q37.25 8.7 36.15 10Q35 11.4 33.4 11.5L23 11.5Q22.05 11.55 21.3 12.25Q20.15 13.4 20.15 15.6L20.15 34.75L27.25 34.75Q27.7 30.8 30.65 28.1Q33.6 25.4 37.6 25.4Q41.55 25.4 44.5 28.1Q47.45 30.8 47.9 34.75L57.85 34.75M56 37.65L45.9 37.65L45.85 36.2Q45.5 33.3 43.55 31.15Q41.1 28.45 37.7 28.4Q34.25 28.35 31.8 31Q29.75 33.2 29.4 36.2L29.3 37.45L29.3 37.65L17.2 37.65L17.2 15.6Q17.2 12.1 19.3 10.15Q20.95 8.55 23.05 8.6L33.3 8.6L34 8L34.3 7.1Q34.3 6.2 33.4 6.1L19.9 6.1Q17 6.1 15.35 7.75Q13.35 9.75 13.3 13.35L13.3 38.1L3.4 63.4L3.35 64L3.3 64.15Q2.9 65.45 2.9 66.6Q2.9 69.85 5.2 72.2Q7.55 74.55 10.75 74.55L58.95 74.55Q62.2 74.55 64.5 72.2Q66.8 69.85 66.8 66.6Q66.8 64.2 65.45 62.15L65.35 62L65.3 61.85Q64.75 60.5 64.75 59.2Q64.75 58.15 65.05 57.25L71.6 40.2L65.35 40.2L59.75 45.6L56 37.65" />
</g>
<g id="PathID_76" transform="matrix(0.387301, 0, 0, 0.387301, 241.85, 93.9)" opacity="1">
</g>
<g id="PathID_77" transform="matrix(1, 0, 0, 1, 65.15, 16)" opacity="1">
<path style="fill:#FFFFFF;fill-opacity:1" d="M194.75 298.25L94.65 257.3L94.65 198.85L100.85 198.85L100.85 253.45L194.75 291.85L289.3 253.45L289.3 198.85L295.5 198.85L295.5 257.3L194.75 298.25" />
</g>
<g id="PathID_78" transform="matrix(1, 0, 0, 1, 65.15, 16)" opacity="1">
</g>
<g id="PathID_79" transform="matrix(1, 0, 0, 1, 65.15, 16)" opacity="1">
<path style="fill:#FFFFFF;fill-opacity:1" d="M195.4 53.35L295.5 94.25L295.5 152.75L289.3 152.75L289.3 98.1L195.4 59.7L100.85 98.1L100.85 152.75L94.65 152.75L94.65 94.25L195.4 53.35" />
</g>
<g id="PathID_80" transform="matrix(1, 0, 0, 1, 65.15, 16)" opacity="1">
</g>
<g id="PathID_81" transform="matrix(1, 0, 0, 1, 65.15, 16)" opacity="1">
<path style="fill:#736357;fill-opacity:1" d="M244.45 117L145.7 117L145.7 115.4L244.45 115.4L244.45 117" />
</g>
<g id="PathID_82" transform="matrix(1, 0, 0, 1, 65.15, 16)" opacity="1">
</g>
<g id="PathID_83" transform="matrix(1, 0, 0, 1, 65.15, 16)" opacity="1">
<path style="fill:#736357;fill-opacity:1" d="M244.45 143.9L145.7 143.9L145.7 142.3L244.45 142.3L244.45 143.9" />
</g>
<g id="PathID_84" transform="matrix(1, 0, 0, 1, 65.15, 16)" opacity="1">
</g>
<g id="PathID_85" transform="matrix(1.21672, 0, 0, 1, 22.9, 16)" opacity="1">
<path style="fill:#FFFFFF;fill-opacity:1" d="M244.45 117L145.7 117L145.7 115.4L244.45 115.4L244.45 117" />
</g>
<g id="PathID_86" transform="matrix(1.21672, 0, 0, 1, 22.9, 16)" opacity="1">
</g>
<g id="PathID_87" transform="matrix(1.21672, 0, 0, 1, 22.9, 16)" opacity="1">
<path style="fill:#FFFFFF;fill-opacity:1" d="M244.45 143.9L145.7 143.9L145.7 142.3L244.45 142.3L244.45 143.9" />
</g>
<g id="PathID_88" transform="matrix(1.21672, 0, 0, 1, 22.9, 16)" opacity="1">
</g>
<g id="PathID_89" transform="matrix(1, 0, 0, 1, 65.1, 16)" opacity="1">
<path style="fill:#FFFFFF;fill-opacity:1" d="M254.75 210.25L135.45 210.25L135.45 204.25L254.75 204.25L254.75 210.25" />
</g>
<g id="PathID_90" transform="matrix(1, 0, 0, 1, 65.1, 16)" opacity="1">
</g>
<g id="PathID_91" transform="matrix(0.541561, 0, 0, 0.541561, 245.6, 246.05)" opacity="1">
<path style="fill:#FFFFFF;fill-opacity:1" d="M45 32.2L45 67.55L38.75 67.55L38.75 32.15Q34.8 30.85 32.3 26.95Q29.75 23 29.75 18Q29.75 11.6 33.3 5.95Q37.1 0 41.9 0Q46.7 0 50.45 5.95Q54 11.6 54 18Q54 23.05 51.45 27Q48.95 30.9 45 32.2M20.8 24.4Q17.75 29.75 14.35 31.65L14.35 67.55L8.1 67.55L8.1 31.6Q4.7 29.7 1.7 24.4Q0.65 22.55 0.3 21.1Q-0.15 19.35 0.1 17.45Q0.3 15.6 1.05 13.25L2.45 9.2L4.25 4.7Q5.75 1.75 7.55 1.55L5.85 16.95L7.95 16.95L9.6 1.45L12.9 1.45L14.55 16.95L16.65 16.95L14.95 1.55Q16.75 1.75 18.25 4.7L20.05 9.2L21.45 13.25Q22.2 15.6 22.4 17.45Q22.65 19.35 22.2 21.1Q21.85 22.55 20.8 24.4" />
</g>
<g id="PathID_92" transform="matrix(0.541561, 0, 0, 0.541561, 245.6, 246.05)" opacity="1">
</g>
<g id="PathID_93" transform="matrix(0.461502, 0, 0, 0.405249, 208.4, 270.75)" opacity="1">
<path style="fill:#FFFFFF;fill-opacity:1" d="M23.9 -26.4Q23.9 -24.55 23.15 -22.85Q22.4 -21.15 21.2 -19.45Q19.95 -17.8 18.4 -16.2L15.35 -13.05L13.35 -11Q12.15 -9.8 11.15 -8.55Q10.15 -7.25 9.45 -6.1Q8.75 -4.9 8.75 -4.05L25.1 -4.05L25.1 0L3.55 0L3.5 -0.6L3.5 -1.15Q3.5 -3.55 4.3 -5.65Q5.1 -7.7 6.4 -9.55Q7.65 -11.4 9.25 -13.05L12.4 -16.2L14.8 -18.65Q15.95 -19.85 16.85 -21.05Q17.75 -22.25 18.3 -23.55Q18.85 -24.8 18.85 -26.25Q18.85 -27.8 18.35 -28.85Q17.85 -29.95 17.05 -30.65Q16.2 -31.35 15.1 -31.7Q14 -32.05 12.8 -32.05Q11.3 -32.05 10.05 -31.65Q8.85 -31.2 7.85 -30.7Q6.9 -30.15 6.25 -29.55L5.2 -28.65L2.85 -32.05Q3.3 -32.55 4.25 -33.3Q5.15 -34.05 6.45 -34.7Q7.7 -35.35 9.3 -35.85Q10.9 -36.3 12.75 -36.3Q18.3 -36.3 21.1 -33.7Q23.9 -31.1 23.9 -26.4" />
</g>
<g id="PathID_94" transform="matrix(0.461502, 0, 0, 0.405249, 208.4, 270.75)" opacity="1">
</g>
<g id="PathID_95" transform="matrix(0.461502, 0, 0, 0.405249, 221.7, 270.75)" opacity="1">
<path style="fill:#FFFFFF;fill-opacity:1" d="M2.55 -17.75Q2.55 -26.65 5.7 -31.5Q8.85 -36.3 14.45 -36.3Q20 -36.3 23.15 -31.5Q26.3 -26.65 26.3 -17.75Q26.3 -8.85 23.15 -4.05Q20 0.75 14.45 0.75Q8.85 0.75 5.7 -4.05Q2.55 -8.85 2.55 -17.75M21.3 -17.75Q21.3 -20.65 20.95 -23.3Q20.6 -25.9 19.85 -27.85Q19.05 -29.8 17.7 -30.95Q16.35 -32.1 14.45 -32.1Q12.5 -32.1 11.15 -30.95Q9.8 -29.8 9 -27.85Q8.25 -25.9 7.9 -23.3Q7.55 -20.65 7.55 -17.75Q7.55 -14.85 7.9 -12.2Q8.25 -9.6 9 -7.65Q9.8 -5.7 11.15 -4.55Q12.5 -3.4 14.45 -3.4Q16.35 -3.4 17.7 -4.55Q19.05 -5.7 19.85 -7.65Q20.6 -9.6 20.95 -12.2Q21.3 -14.85 21.3 -17.75" />
</g>
<g id="PathID_96" transform="matrix(0.461502, 0, 0, 0.405249, 221.7, 270.75)" opacity="1">
</g>
<g id="PathID_97" transform="matrix(0.461502, 0, 0, 0.405249, 284.1, 270.75)" opacity="1">
<path style="fill:#FFFFFF;fill-opacity:1" d="M23.9 -26.4Q23.9 -24.55 23.15 -22.85Q22.4 -21.15 21.2 -19.45Q19.95 -17.8 18.4 -16.2L15.35 -13.05L13.35 -11Q12.15 -9.8 11.15 -8.55Q10.15 -7.25 9.45 -6.1Q8.75 -4.9 8.75 -4.05L25.1 -4.05L25.1 0L3.55 0L3.5 -0.6L3.5 -1.15Q3.5 -3.55 4.3 -5.65Q5.1 -7.7 6.4 -9.55Q7.65 -11.4 9.25 -13.05L12.4 -16.2L14.8 -18.65Q15.95 -19.85 16.85 -21.05Q17.75 -22.25 18.3 -23.55Q18.85 -24.8 18.85 -26.25Q18.85 -27.8 18.35 -28.85Q17.85 -29.95 17.05 -30.65Q16.2 -31.35 15.1 -31.7Q14 -32.05 12.8 -32.05Q11.3 -32.05 10.05 -31.65Q8.85 -31.2 7.85 -30.7Q6.9 -30.15 6.25 -29.55L5.2 -28.65L2.85 -32.05Q3.3 -32.55 4.25 -33.3Q5.15 -34.05 6.45 -34.7Q7.7 -35.35 9.3 -35.85Q10.9 -36.3 12.75 -36.3Q18.3 -36.3 21.1 -33.7Q23.9 -31.1 23.9 -26.4" />
</g>
<g id="PathID_98" transform="matrix(0.461502, 0, 0, 0.405249, 284.1, 270.75)" opacity="1">
</g>
<g id="PathID_99" transform="matrix(0.461502, 0, 0, 0.405249, 297.4, 270.75)" opacity="1">
<path style="fill:#FFFFFF;fill-opacity:1" d="M2.55 -17.75Q2.55 -26.65 5.7 -31.5Q8.85 -36.3 14.45 -36.3Q20 -36.3 23.15 -31.5Q26.3 -26.65 26.3 -17.75Q26.3 -8.85 23.15 -4.05Q20 0.75 14.45 0.75Q8.85 0.75 5.7 -4.05Q2.55 -8.85 2.55 -17.75M21.3 -17.75Q21.3 -20.65 20.95 -23.3Q20.6 -25.9 19.85 -27.85Q19.05 -29.8 17.7 -30.95Q16.35 -32.1 14.45 -32.1Q12.5 -32.1 11.15 -30.95Q9.8 -29.8 9 -27.85Q8.25 -25.9 7.9 -23.3Q7.55 -20.65 7.55 -17.75Q7.55 -14.85 7.9 -12.2Q8.25 -9.6 9 -7.65Q9.8 -5.7 11.15 -4.55Q12.5 -3.4 14.45 -3.4Q16.35 -3.4 17.7 -4.55Q19.05 -5.7 19.85 -7.65Q20.6 -9.6 20.95 -12.2Q21.3 -14.85 21.3 -17.75" />
</g>
<g id="PathID_100" transform="matrix(0.461502, 0, 0, 0.405249, 297.4, 270.75)" opacity="1">
</g>
<g id="PathID_101" transform="matrix(0.657376, 0, 0, 0.577247, 130.6, 202.85)" opacity="1">
<path style="fill:#FFFFFF;fill-opacity:1" d="M30.65 -35.45L27.05 -31.6L22.9 -27.25L18.55 -22.85L14.55 -18.9Q16.75 -17.35 19.2 -15.1Q21.65 -12.85 24 -10.3Q26.35 -7.7 28.45 -5.05Q30.5 -2.4 31.9 0L26.05 0Q24.5 -2.4 22.5 -4.85Q20.5 -7.25 18.3 -9.5Q16.05 -11.7 13.8 -13.6Q11.5 -15.5 9.35 -16.85L9.35 0L4.4 0L4.4 -35.45L9.35 -35.45L9.35 -19.8L13.3 -23.6L17.55 -27.9L21.5 -32Q23.4 -34 24.65 -35.45L30.65 -35.45" />
</g>
<g id="PathID_102" transform="matrix(0.657376, 0, 0, 0.577247, 130.6, 202.85)" opacity="1">
</g>
<g id="PathID_103" transform="matrix(0.657376, 0, 0, 0.577247, 159.2, 202.85)" opacity="1">
<path style="fill:#FFFFFF;fill-opacity:1" d="M28.1 0L26.45 -4.5L24.85 -9.05L8.8 -9.05L5.55 0L0.4 0L4.25 -10.4L7.75 -19.5Q9.45 -23.8 11.15 -27.7Q12.85 -31.65 14.7 -35.45L19.25 -35.45Q21.1 -31.65 22.75 -27.7Q24.45 -23.8 26.2 -19.5L29.7 -10.4L33.5 0L28.1 0M23.45 -13.15L20.2 -21.75Q18.55 -25.95 16.85 -29.8Q15.05 -25.95 13.45 -21.75Q11.8 -17.6 10.25 -13.15L23.45 -13.15" />
</g>
<g id="PathID_104" transform="matrix(0.657376, 0, 0, 0.577247, 159.2, 202.85)" opacity="1">
</g>
<g id="PathID_105" transform="matrix(0.657376, 0, 0, 0.577247, 188.95, 202.85)" opacity="1">
<path style="fill:#FFFFFF;fill-opacity:1" d="M4.4 0L4.4 -35.45L25.8 -35.45L25.8 -31.2L9.35 -31.2L9.35 -20.5L23.95 -20.5L23.95 -16.3L9.35 -16.3L9.35 0L4.4 0" />
</g>
<g id="PathID_106" transform="matrix(0.657376, 0, 0, 0.577247, 188.95, 202.85)" opacity="1">
</g>
<g id="PathID_107" transform="matrix(0.657376, 0, 0, 0.577247, 214.45, 202.85)" opacity="1">
<path style="fill:#FFFFFF;fill-opacity:1" d="M28.1 0L26.45 -4.5L24.85 -9.05L8.8 -9.05L5.55 0L0.4 0L4.25 -10.4L7.75 -19.5Q9.45 -23.8 11.15 -27.7Q12.85 -31.65 14.7 -35.45L19.25 -35.45Q21.1 -31.65 22.75 -27.7Q24.45 -23.8 26.2 -19.5L29.7 -10.4L33.5 0L28.1 0M23.45 -13.15L20.2 -21.75Q18.55 -25.95 16.85 -29.8Q15.05 -25.95 13.45 -21.75Q11.8 -17.6 10.25 -13.15L23.45 -13.15" />
</g>
<g id="PathID_108" transform="matrix(0.657376, 0, 0, 0.577247, 214.45, 202.85)" opacity="1">
</g>
<g id="PathID_109" transform="matrix(0.657376, 0, 0, 0.577247, 274.65, 202.85)" opacity="1">
<path style="fill:#FFFFFF;fill-opacity:1" d="M19.65 0.75Q15.9 0.75 12.85 -0.45Q9.75 -1.7 7.55 -4.05Q5.35 -6.4 4.15 -9.85Q2.95 -13.3 2.95 -17.75Q2.95 -22.2 4.3 -25.65Q5.65 -29.1 7.95 -31.5Q10.3 -33.85 13.35 -35.05Q16.4 -36.3 19.9 -36.3Q22.1 -36.3 23.85 -36Q25.65 -35.65 26.95 -35.25Q28.25 -34.85 29.05 -34.45L30.2 -33.85L28.75 -29.75Q28.3 -30.05 27.45 -30.4L25.45 -31.1Q24.35 -31.5 23.05 -31.7Q21.75 -31.95 20.4 -31.95Q17.6 -31.95 15.35 -30.95Q13.1 -30 11.5 -28.15Q9.9 -26.3 9.1 -23.65Q8.25 -21.05 8.25 -17.75Q8.25 -14.6 8.95 -11.95Q9.7 -9.35 11.2 -7.5Q12.7 -5.6 14.9 -4.6Q17.15 -3.55 20.1 -3.55Q23.55 -3.55 25.8 -4.3Q28.05 -5 29.15 -5.55L30.45 -1.45Q30.1 -1.2 29.15 -0.85Q28.25 -0.45 26.85 -0.1Q25.5 0.25 23.65 0.5Q21.8 0.75 19.65 0.75" />
</g>
<g id="PathID_110" transform="matrix(0.657376, 0, 0, 0.577247, 274.65, 202.85)" opacity="1">
</g>
<g id="PathID_111" transform="matrix(0.657376, 0, 0, 0.577247, 303, 202.85)" opacity="1">
<path style="fill:#FFFFFF;fill-opacity:1" d="M28.1 0L26.45 -4.5L24.85 -9.05L8.8 -9.05L5.55 0L0.4 0L4.25 -10.4L7.75 -19.5Q9.45 -23.8 11.15 -27.7Q12.85 -31.65 14.7 -35.45L19.25 -35.45Q21.1 -31.65 22.75 -27.7Q24.45 -23.8 26.2 -19.5L29.7 -10.4L33.5 0L28.1 0M23.45 -13.15L20.2 -21.75Q18.55 -25.95 16.85 -29.8Q15.05 -25.95 13.45 -21.75Q11.8 -17.6 10.25 -13.15L23.45 -13.15" />
</g>
<g id="PathID_112" transform="matrix(0.657376, 0, 0, 0.577247, 303, 202.85)" opacity="1">
</g>
<g id="PathID_113" transform="matrix(0.657376, 0, 0, 0.577247, 332.75, 202.85)" opacity="1">
<path style="fill:#FFFFFF;fill-opacity:1" d="M4.4 0L4.4 -35.45L25.8 -35.45L25.8 -31.2L9.35 -31.2L9.35 -20.5L23.95 -20.5L23.95 -16.3L9.35 -16.3L9.35 0L4.4 0" />
</g>
<g id="PathID_114" transform="matrix(0.657376, 0, 0, 0.577247, 332.75, 202.85)" opacity="1">
</g>
<g id="PathID_115" transform="matrix(0.657376, 0, 0, 0.577247, 358.25, 202.85)" opacity="1">
<path style="fill:#FFFFFF;fill-opacity:1" d="M4.4 0L4.4 -35.45L26.05 -35.45L26.05 -31.2L9.35 -31.2L9.35 -20.65L24.2 -20.65L24.2 -16.5L9.35 -16.5L9.35 -4.25L27.35 -4.25L27.35 0L4.4 0" />
</g>
<g id="PathID_116" transform="matrix(0.657376, 0, 0, 0.577247, 358.25, 202.85)" opacity="1">
</g>
</svg>
